<svg width="87" height="24" viewBox="0 0 87 24" fill="none" xmlns="http://www.w3.org/2000/svg">
<g clip-path="url(#clip0_11_25)">
<path d="M0.0823364 24.0713V-0.0712013H17.8191V4.79385H6.01762V9.69551H15.4036L10.9681 14.2679H6.01762V19.2062H13.888L18.2677 14.6598V24.0713H0.0823364Z" fill="#F84D29"/>
<path d="M31.9297 -0.0712013C35.4955 -0.0712013 38.2216 0.977408 40.1079 3.07464C42.0174 5.17185 42.9721 8.14696 42.9721 12C42.9721 15.853 42.0174 18.8282 40.1079 20.9255C38.2216 23.0225 35.4955 24.0713 31.9297 24.0713H22.2677V10.977L28.2028 4.68413H22.2677V-0.0712013H31.9297ZM31.343 19.3158C33.2755 19.3158 34.6788 18.7062 35.5529 17.4869C36.4503 16.2432 36.8988 14.4142 36.8988 12C36.8988 9.58576 36.4503 7.76898 35.5529 6.54967C34.6788 5.30596 33.2755 4.68413 31.343 4.68413H28.2028V19.3158H31.343Z" fill="#F84D29"/>
<path d="M57.4278 -0.0712013C59.2912 -0.0712013 60.8786 0.245821 62.1898 0.879865C63.5011 1.51391 64.5018 2.4284 65.192 3.62333C65.8821 4.81825 66.2271 6.26924 66.2271 7.97627C66.2271 9.68331 65.8821 11.1343 65.192 12.3292C64.5018 13.5241 63.5011 14.4386 62.1898 15.0727C60.8786 15.7067 59.2912 16.0237 57.4278 16.0237H52.9073V24.0713H46.9721V-0.0712013H57.4278ZM56.4962 11.305C57.7384 11.305 58.6702 11.0367 59.2912 10.5003C59.9353 9.93936 60.2574 9.09804 60.2574 7.97627C60.2574 6.85449 59.9353 6.02536 59.2912 5.48887C58.6702 4.92798 57.7384 4.64754 56.4962 4.64754H52.9073V11.305H56.4962Z" fill="#F84D29"/>
<path d="M76.1625 19.2062H87.5845V24.0713H70.2271V-0.0712013H76.1625V19.2062Z" fill="#F84D29"/>
</g>
<defs>
<clipPath id="clip0_11_25">
<rect width="87" height="24" fill="white"/>
</clipPath>
</defs>
</svg>
