<svg id="Layer_1" data-name="Layer 1" xmlns="http://www.w3.org/2000/svg" viewBox="0 0 612 792"><defs><style>.cls-1{fill:#5a2dff;}</style></defs><path class="cls-1" d="M392.5,173.63q62.31,0,124.62.1c20.47,0,35.31,14.62,35.32,35.1,0,66.45-.11,132.89-.07,199.34,0,18.71-13.1,35-31.36,35.72-11.05.45-24.2-7.63-29.79-19.48a41.85,41.85,0,0,1-3.84-18.05q0-59-.21-118a53.54,53.54,0,0,0-.16-6.21,8.47,8.47,0,0,0-12.3-6.67c-5.67,2.8-10.25,7.16-14.53,11.63-23.55,24.65-47.7,48.69-71.77,72.83-7.15,7.18-13.81,15.1-15.75,25.79-1.52,8.43-2.12,17.39,1.66,24.63,4.29,8.21,10.82,15.42,17.58,22.13,19,18.88,37.89,37.91,56.83,56.88q38.4,38.45,76.79,76.91c5.26,5.29,9.82,11,10.14,19.09.42,10.87-5.76,18-13.12,24.54-13.61,12.17-34.79,10.81-48.68-1.1-23.45-20.1-44.63-42.56-66.64-64.15-12-11.73-24.31-23.07-35.8-35.23-9.66-10.22-20.07-19.62-30-29.54-6.55-6.55-14.36-12.16-19.63-19.59-5-7.07-10.47-13.88-13.53-22.75-8-23.06-5.35-46.54-5.05-69.88.18-13.45,5.92-25.62,14.86-35.8,11.77-13.39,24.93-25.44,37.79-37.77,10.15-9.74,20.17-19.65,29.63-30,3.54-3.9,7.91-8.75,4.46-15.11s-8.41-9.87-15.88-9.85c-31.89.06-63.78-.07-95.67,0-5.7,0-11.26-1-16.92-1.26-7.13-.28-12.65-3.79-17.08-9.17-6.05-7.33-11-15.07-9.71-25.27,1.13-9.15,5.93-15.53,12.68-21.84,8.28-7.73,17.68-7,27.24-7.27C313.9,173,353.2,174,392.5,173.63Z"/><path d="M228.06,607.41l-97.74-.07c-6.37,0-12.8.21-19-1.48-16.23-4.44-27-18.4-27.22-36.59-.34-32.1-.46-64.21.15-96.3.32-17.1,8-31.43,20.36-43.28q23.5-22.56,46.83-45.33c6.23-6.11,12.31-12.41,18.1-18.94,10.81-12.2,10.27-29.68,2.2-39.88-10.34-13.07-22.95-23.73-34.48-35.52-13.49-13.8-27.57-27-41.2-40.71-10.27-10.31-17.49-22.13-17-37.48.62-18,12.7-32.53,29.67-35.27,10-1.62,18.23,2.16,25.11,9.12q40.71,41.2,81.27,82.54c10,10.21,20.75,19.7,29.8,30.84,20.6,25.39,23.73,70.92-3.85,99-9.26,9.42-18,19.44-27.59,28.45-15.81,14.87-30.11,31.18-45.83,46.09a64.47,64.47,0,0,0-9.05,11.26c-6.91,10.4-7.51,21.31-2.22,32.37,5.38,11.25,15.45,16.33,27.18,16.7,23.08.73,46.19.53,69.29.56q39.56,0,79.12-.22c12.51-.08,24,2.39,32.79,12.13,20.83,23.16,5.11,54.69-16.49,60.82a51.41,51.41,0,0,1-14.24,1.5q-53-.13-106-.12Z"/></svg>