<svg width="89" height="24" viewBox="0 0 89 24" fill="none" xmlns="http://www.w3.org/2000/svg">
<path d="M7.82061 22.15V7.786H9.94161L9.98361 9.571C10.6136 8.269 11.7686 7.534 13.3016 7.534C16.3676 7.534 17.8796 10.159 17.8796 13.393C17.8796 16.627 16.3676 19.252 13.3016 19.252C11.8736 19.252 10.6976 18.58 10.0676 17.446V22.15H7.82061ZM12.8186 17.194C14.4986 17.194 15.5066 15.808 15.5066 13.393C15.5066 10.978 14.4986 9.592 12.8186 9.592C11.1386 9.592 10.0676 10.915 10.0676 13.393C10.0676 15.871 11.1176 17.194 12.8186 17.194ZM20.6224 19V17.068H23.3944V9.718H20.6224V7.786H25.0114L25.1584 9.928C25.5154 8.5 26.4604 7.786 27.8674 7.786H30.3244V9.781H28.0354C26.4394 9.781 25.6414 10.663 25.6414 12.364V17.068H29.0644V19H20.6224ZM36.2382 19.252C34.1802 19.252 32.4582 18.034 32.4582 16.102C32.4582 14.212 33.6972 13.225 35.8812 12.763L39.4512 12.028C39.4512 10.369 38.7162 9.592 37.3092 9.592C35.9652 9.592 35.2512 10.201 34.9782 11.293L32.6472 11.146C33.0672 8.983 34.7472 7.534 37.3092 7.534C40.1232 7.534 41.6982 9.256 41.6982 12.154V16.333C41.6982 16.879 41.9082 17.068 42.4122 17.068H43.0422V19C42.8742 19.021 42.4332 19.084 42.0552 19.084C40.7112 19.084 39.9342 18.496 39.6822 17.341C39.1572 18.475 37.8132 19.252 36.2382 19.252ZM36.5322 17.32C38.3802 17.32 39.4512 16.291 39.4512 14.632V13.813L36.4482 14.422C35.2722 14.653 34.8102 15.115 34.8102 15.934C34.8102 16.816 35.4192 17.32 36.5322 17.32ZM44.903 19L48.977 13.246L45.092 7.786H47.78L50.321 11.545L52.799 7.786H55.508L51.665 13.288L55.697 19H53.03L50.321 14.947L47.591 19H44.903ZM58.1038 19V17.068H62.4928V9.718H58.3138V7.786H64.7608V17.068H68.5198V19H58.1038ZM62.3668 6.253V4.027H64.7188V6.253H62.3668ZM75.6726 19.252C72.7326 19.252 70.9686 17.572 70.7796 15.472L73.0896 15.367C73.2996 16.501 74.1396 17.194 75.6726 17.194C77.1006 17.194 77.8986 16.837 77.8986 15.997C77.8986 15.199 77.4576 14.863 75.2526 14.443C72.0816 13.813 71.0316 12.826 71.0316 11.02C71.0316 9.067 72.6066 7.534 75.3786 7.534C78.3396 7.534 79.7676 9.298 80.0616 11.23L77.7516 11.356C77.5626 10.285 76.7436 9.592 75.3996 9.592C74.0346 9.592 73.3416 10.201 73.3416 10.999C73.3416 11.965 74.0346 12.28 76.0716 12.658C79.2216 13.246 80.1876 14.128 80.1876 15.997C80.1876 18.034 78.3396 19.252 75.6726 19.252Z" fill="url(#paint0_linear_14_2)"/>
<defs>
<linearGradient id="paint0_linear_14_2" x1="44.8172" y1="6.35294" x2="44.8172" y2="20.4706" gradientUnits="userSpaceOnUse">
<stop stop-color="#4B359F"/>
<stop offset="1" stop-color="#0E0A14"/>
</linearGradient>
</defs>
</svg>
