<svg width="77" height="26" viewBox="0 0 77 26" fill="none" xmlns="http://www.w3.org/2000/svg">
<path d="M1 23L15 9" stroke="black" stroke-width="2" stroke-linecap="round" stroke-linejoin="round"/>
<path d="M2.47 13.53L4 12L5.53 13.53C6.1834 14.186 6.55026 15.0741 6.55026 16C6.55026 16.9259 6.1834 17.814 5.53 18.47L4 20L2.47 18.47C1.8166 17.814 1.44974 16.9259 1.44974 16C1.44974 15.0741 1.8166 14.186 2.47 13.53Z" stroke="black" stroke-width="2" stroke-linecap="round" stroke-linejoin="round"/>
<path d="M6.47 9.53L8 8L9.53 9.53C10.1834 10.186 10.5503 11.0741 10.5503 12C10.5503 12.9259 10.1834 13.814 9.53 14.47L8 16L6.47 14.47C5.8166 13.814 5.44974 12.9259 5.44974 12C5.44974 11.0741 5.8166 10.186 6.47 9.53Z" stroke="black" stroke-width="2" stroke-linecap="round" stroke-linejoin="round"/>
<path d="M10.47 5.53L12 4L13.53 5.53C14.1834 6.18598 14.5503 7.07413 14.5503 8C14.5503 8.92587 14.1834 9.81402 13.53 10.47L12 12L10.47 10.47C9.8166 9.81402 9.44974 8.92587 9.44974 8C9.44974 7.07413 9.8166 6.18598 10.47 5.53Z" stroke="black" stroke-width="2" stroke-linecap="round" stroke-linejoin="round"/>
<path d="M19 3H21V5C21 6.06087 20.5786 7.07828 19.8284 7.82843C19.0783 8.57857 18.0609 9 17 9H15V7C15 5.93913 15.4214 4.92172 16.1716 4.17157C16.9217 3.42143 17.9391 3 19 3Z" stroke="black" stroke-width="2" stroke-linecap="round" stroke-linejoin="round"/>
<path d="M10.47 18.47L12 20L10.47 21.53C9.81402 22.1834 8.92587 22.5503 8 22.5503C7.07413 22.5503 6.18598 22.1834 5.53 21.53L4 20L5.53 18.47C6.18598 17.8166 7.07413 17.4497 8 17.4497C8.92587 17.4497 9.81402 17.8166 10.47 18.47Z" stroke="black" stroke-width="2" stroke-linecap="round" stroke-linejoin="round"/>
<path d="M14.47 14.47L16 16L14.47 17.53C13.814 18.1834 12.9259 18.5503 12 18.5503C11.0741 18.5503 10.186 18.1834 9.53 17.53L8 16L9.53 14.47C10.186 13.8166 11.0741 13.4497 12 13.4497C12.9259 13.4497 13.814 13.8166 14.47 14.47Z" stroke="black" stroke-width="2" stroke-linecap="round" stroke-linejoin="round"/>
<path d="M18.47 10.47L20 12L18.47 13.53C17.814 14.1834 16.9259 14.5503 16 14.5503C15.0741 14.5503 14.186 14.1834 13.53 13.53L12 12L13.53 10.47C14.186 9.8166 15.0741 9.44974 16 9.44974C16.9259 9.44974 17.814 9.8166 18.47 10.47Z" stroke="black" stroke-width="2" stroke-linecap="round" stroke-linejoin="round"/>
<path d="M32.7844 20.336C29.5084 20.336 27.4504 18.215 27.1984 15.149L29.5504 14.981C29.8444 16.997 30.9994 18.194 32.8264 18.194C34.6534 18.194 35.6404 17.417 35.6404 16.157C35.6404 14.834 34.9054 14.12 31.9444 13.343C28.8784 12.566 27.5134 11.432 27.5134 9.101C27.5134 6.518 29.4874 4.754 32.5954 4.754C35.6194 4.754 37.4674 6.749 37.8244 9.584L35.4514 9.71C35.2414 8.072 34.2754 6.896 32.5534 6.896C30.9154 6.896 29.9074 7.736 29.9074 8.996C29.9074 10.277 30.6634 10.781 33.0994 11.411C36.6904 12.335 38.0344 13.679 38.0344 16.22C38.0344 18.635 35.9344 20.336 32.7844 20.336ZM45.3132 20.252C42.1632 20.252 40.1052 17.963 40.1052 14.393C40.1052 10.823 42.1632 8.534 45.2712 8.534C48.1482 8.534 50.3742 10.592 50.3742 14.435V14.981H42.4782C42.6462 17.123 43.6962 18.194 45.3132 18.194C46.5732 18.194 47.4132 17.543 47.7912 16.472L50.1642 16.682C49.5132 18.782 47.7912 20.252 45.3132 20.252ZM47.9172 13.322C47.7282 11.516 46.6992 10.592 45.2712 10.592C43.8012 10.592 42.7932 11.537 42.5202 13.322H47.9172ZM57.905 20.252C54.755 20.252 52.697 17.963 52.697 14.393C52.697 10.823 54.755 8.534 57.863 8.534C60.74 8.534 62.966 10.592 62.966 14.435V14.981H55.07C55.238 17.123 56.288 18.194 57.905 18.194C59.165 18.194 60.005 17.543 60.383 16.472L62.756 16.682C62.105 18.782 60.383 20.252 57.905 20.252ZM60.509 13.322C60.32 11.516 59.291 10.592 57.863 10.592C56.393 10.592 55.385 11.537 55.112 13.322H60.509ZM69.6568 20.252C66.8848 20.252 65.1208 17.984 65.1208 14.393C65.1208 10.802 66.8848 8.534 69.6568 8.534C71.1478 8.534 72.3448 9.311 72.9328 10.361V5.09H75.1798V20H73.0588L73.0168 18.341C72.3868 19.58 71.1688 20.252 69.6568 20.252ZM70.1398 18.194C71.8618 18.194 72.9328 16.766 72.9328 14.393C72.9328 11.999 71.8618 10.592 70.0978 10.592C68.4808 10.592 67.4938 11.999 67.4938 14.393C67.4938 16.766 68.4808 18.194 70.1398 18.194Z" fill="black"/>
</svg>
