<svg width="76" height="24" viewBox="0 0 76 24" fill="none" xmlns="http://www.w3.org/2000/svg">
<path d="M20.3678 10.5328C19.9884 10.876 19.6979 11.2902 19.5169 11.7458C19.3359 12.2015 19.269 12.6874 19.3207 13.169L19.3027 13.1528C19.356 13.7197 19.2709 14.2901 19.0536 14.8245C18.8363 15.3587 18.4921 15.8439 18.0447 16.2462C17.5973 16.6485 17.0576 16.9582 16.4634 17.1535C15.8692 17.3489 15.2348 17.4254 14.6044 17.3775L14.6225 17.3937C13.8684 17.3306 13.1109 17.4781 12.4534 17.8162C11.796 18.1544 11.2705 18.6666 10.9487 19.2831C10.6269 19.8996 10.5243 20.5903 10.655 21.2612C10.7859 21.932 11.1435 22.5502 11.6793 23.0315C12.2151 23.5128 12.9029 23.8339 13.649 23.9508C14.3952 24.0678 15.1632 23.9749 15.8485 23.685C16.5339 23.395 17.103 22.9222 17.4784 22.3307C17.8539 21.7392 18.0173 21.058 17.9465 20.38L17.9655 20.3962C17.9122 19.8293 17.9972 19.2588 18.2145 18.7245C18.4318 18.1902 18.7762 17.705 19.2235 17.3027C19.6709 16.9005 20.2105 16.5908 20.8047 16.3955C21.3989 16.2001 22.0333 16.1236 22.6638 16.1715L22.6448 16.1553C23.2608 16.205 23.8809 16.1142 24.4476 15.8912C25.0141 15.6682 25.5088 15.3201 25.886 14.8794C26.2631 14.4386 26.5107 13.9193 26.6051 13.3698C26.6997 12.8201 26.6384 12.258 26.427 11.7352C26.2156 11.2126 25.8609 10.7464 25.3957 10.3798C24.9306 10.0132 24.3702 9.75817 23.7662 9.63828C23.1623 9.5184 22.5344 9.53748 21.9408 9.69381C21.3473 9.85024 20.8073 10.1388 20.3708 10.5328H20.3678Z" fill="white"/>
<path d="M12.9839 15.2718L12.9649 15.2556C13.5007 15.3041 14.0418 15.245 14.5492 15.0824C15.0564 14.9199 15.5172 14.6581 15.8982 14.3158C16.2791 13.9735 16.5707 13.5593 16.7518 13.1033C16.933 12.6472 16.9991 12.1608 16.9456 11.6789L16.9646 11.6951C16.9113 11.1282 16.9964 10.5577 17.2136 10.0234C17.4309 9.48915 17.7753 9.00394 18.2226 8.60163C18.6701 8.19941 19.2097 7.88972 19.8038 7.69441C20.398 7.49902 21.0324 7.42258 21.6629 7.47043L21.6439 7.45423C22.3981 7.51792 23.1557 7.37085 23.8135 7.03311C24.4714 6.69537 24.9973 6.18337 25.3196 5.56697C25.6419 4.95059 25.7449 4.25979 25.6146 3.58882C25.4842 2.91784 25.1269 2.29936 24.5912 1.81772C24.0556 1.3361 23.3678 1.01475 22.6216 0.89755C21.8754 0.78034 21.1072 0.872962 20.4217 1.16279C19.7361 1.4526 19.1668 1.92552 18.7912 2.51702C18.4155 3.10852 18.252 3.78981 18.3228 4.46796L18.3048 4.45086C18.3582 5.01777 18.2733 5.58833 18.0561 6.12269C17.8389 6.65705 17.4945 7.14234 17.0472 7.54465C16.5997 7.94687 16.06 8.25657 15.4658 8.45187C14.8715 8.64718 14.237 8.7235 13.6065 8.67553L13.6245 8.69263C13.0887 8.64412 12.5475 8.70325 12.0402 8.86579C11.533 9.02825 11.0721 9.29015 10.6912 9.63243C10.3102 9.97471 10.0187 10.3889 9.83751 10.8449C9.65644 11.301 9.59028 11.7874 9.64383 12.2693L9.62582 12.2531C9.67886 12.8199 9.59369 13.3904 9.37639 13.9246C9.15899 14.4588 8.81467 14.944 8.36736 15.3462C7.92004 15.7484 7.38055 16.058 6.7864 16.2535C6.19225 16.4489 5.5579 16.5255 4.92751 16.4778L4.94553 16.494C4.19136 16.4303 3.43369 16.5774 2.77587 16.9151C2.11806 17.2529 1.59213 17.7649 1.26982 18.3813C0.947504 18.9977 0.844489 19.6885 0.974839 20.3594C1.10519 21.0304 1.46256 21.6489 1.99818 22.1305C2.53382 22.6122 3.22163 22.9335 3.96783 23.0507C4.71403 23.1679 5.48226 23.0753 6.16773 22.7854C6.85326 22.4956 7.42268 22.0228 7.79823 21.4313C8.17388 20.8397 8.33743 20.1585 8.26656 19.4803L8.28558 19.4965C8.23233 18.9296 8.31741 18.3591 8.53471 17.8248C8.75191 17.2905 9.09633 16.8053 9.54364 16.403C9.99105 16.0008 10.5306 15.6911 11.1248 15.4958C11.719 15.3004 12.3534 15.2239 12.9839 15.2718Z" fill="#FF5151"/>
<path d="M6.27572 13.4652C6.65507 13.1221 6.94553 12.7079 7.1263 12.2522C7.30707 11.7965 7.37383 11.3105 7.32168 10.829L7.3407 10.8452C7.28745 10.2782 7.37243 9.70749 7.58983 9.17306C7.80723 8.63862 8.15184 8.15333 8.59946 7.75102C9.04707 7.34876 9.58687 7.03917 10.1813 6.84391C10.7758 6.64864 11.4104 6.5724 12.041 6.62054L12.022 6.60434C12.7759 6.66785 13.5333 6.52071 14.1908 6.18298C14.8483 5.84527 15.3739 5.3334 15.6961 4.7172C16.0182 4.10099 16.1211 3.41045 15.9908 2.73972C15.8605 2.069 15.5031 1.45076 14.9677 0.969298C14.4323 0.48784 13.7447 0.166604 12.9988 0.0494026C12.2529 -0.0678073 11.4849 0.0247331 10.7997 0.314378C10.1144 0.604024 9.54513 1.07669 9.16958 1.66791C8.79394 2.25914 8.63029 2.94015 8.70095 3.61806L8.68293 3.60186C8.73618 4.16874 8.65111 4.73924 8.43381 5.27353C8.21651 5.80782 7.87219 6.29303 7.42477 6.6953C6.97746 7.09758 6.43787 7.40721 5.84364 7.60252C5.24945 7.79791 4.615 7.87441 3.98457 7.82653L4.00259 7.84273C3.38659 7.79305 2.76661 7.88404 2.20011 8.10716C1.63361 8.33028 1.1389 8.6784 0.761841 9.11924C0.384784 9.55998 0.137576 10.0793 0.0431087 10.6288C-0.0513484 11.1785 0.00999793 11.7406 0.221463 12.2632C0.432928 12.7858 0.787685 13.252 1.25284 13.6184C1.718 13.985 2.27852 14.24 2.88246 14.3599C3.48638 14.4797 4.11419 14.4605 4.70771 14.3042C5.30122 14.1478 5.84121 13.8592 6.27772 13.4652H6.27572Z" fill="#E00000"/>
<path d="M41.9356 10.191C41.8873 9.70404 41.68 9.32573 41.3138 9.05608C40.9475 8.78643 40.4505 8.6516 39.8226 8.6516C39.396 8.6516 39.0358 8.71197 38.742 8.83271C38.4482 8.94943 38.2229 9.11242 38.0659 9.3217C37.913 9.53098 37.8365 9.76844 37.8365 10.0341C37.8284 10.2554 37.8747 10.4486 37.9753 10.6136C38.08 10.7786 38.2229 10.9215 38.404 11.0422C38.5851 11.1589 38.7943 11.2616 39.0318 11.3501C39.2693 11.4346 39.5228 11.5071 39.7925 11.5674L40.9033 11.8331C41.4426 11.9538 41.9376 12.1148 42.3883 12.316C42.8391 12.5173 43.2295 12.7648 43.5595 13.0586C43.8895 13.3524 44.1451 13.6985 44.3262 14.0969C44.5113 14.4954 44.6059 14.9521 44.6099 15.4673C44.6059 16.2239 44.4127 16.8799 44.0304 17.4353C43.6521 17.9867 43.1047 18.4153 42.3883 18.7212C41.676 19.0231 40.8167 19.174 39.8106 19.174C38.8125 19.174 37.9431 19.021 37.2026 18.7152C36.4661 18.4093 35.8906 17.9565 35.476 17.3569C35.0655 16.7532 34.8502 16.0066 34.8301 15.1172H37.3596C37.3877 15.5317 37.5065 15.8778 37.7158 16.1555C37.9291 16.4292 38.2128 16.6365 38.567 16.7773C38.9251 16.9142 39.3296 16.9826 39.7804 16.9826C40.2231 16.9826 40.6074 16.9182 40.9334 16.7894C41.2635 16.6606 41.519 16.4815 41.7001 16.2521C41.8812 16.0227 41.9718 15.7591 41.9718 15.4613C41.9718 15.1836 41.8893 14.9501 41.7243 14.761C41.5633 14.5718 41.3258 14.4108 41.0119 14.278C40.702 14.1452 40.3217 14.0245 39.8709 13.9158L38.5247 13.5777C37.4823 13.3242 36.6593 12.9278 36.0556 12.3885C35.4519 11.8492 35.1521 11.1227 35.1561 10.2091C35.1521 9.46055 35.3513 8.80655 35.7537 8.24713C36.1602 7.68771 36.7176 7.25104 37.426 6.93712C38.1343 6.62319 38.9392 6.46623 39.8408 6.46623C40.7584 6.46623 41.5593 6.62319 42.2434 6.93712C42.9317 7.25104 43.4669 7.68771 43.8493 8.24713C44.2316 8.80655 44.4288 9.45452 44.4409 10.191H41.9356ZM47.9076 22.4762C47.5816 22.4762 47.2757 22.45 46.99 22.3977C46.7083 22.3494 46.4748 22.287 46.2897 22.2106L46.8692 20.2908C47.1711 20.3834 47.4428 20.4337 47.6842 20.4417C47.9297 20.4498 48.141 20.3934 48.3181 20.2727C48.4992 20.152 48.6461 19.9467 48.7588 19.6569L48.9097 19.2645L45.5834 9.72618H48.2879L50.2077 16.5358H50.3043L52.2421 9.72618H54.9648L51.3607 20.001C51.1877 20.5001 50.9522 20.9347 50.6544 21.305C50.3606 21.6793 49.9883 21.9671 49.5376 22.1683C49.0868 22.3736 48.5435 22.4762 47.9076 22.4762Z" fill="#CD1B42"/>
<path d="M58.8526 13.6381V18.9989H56.2808V9.72618H58.7318V11.3622H58.8405C59.0457 10.8229 59.3898 10.3963 59.8728 10.0824C60.3558 9.76441 60.9413 9.60544 61.6295 9.60544C62.2735 9.60544 62.8349 9.7463 63.3139 10.028C63.7928 10.3097 64.1651 10.7122 64.4307 11.2354C64.6963 11.7546 64.8291 12.3744 64.8291 13.0948V18.9989H62.2574V13.5536C62.2614 12.9861 62.1165 12.5434 61.8227 12.2255C61.5289 11.9035 61.1245 11.7425 60.6093 11.7425C60.2632 11.7425 59.9573 11.817 59.6917 11.9659C59.4301 12.1148 59.2248 12.3321 59.0759 12.6179C58.931 12.8996 58.8566 13.2397 58.8526 13.6381ZM71.0457 19.18C70.0958 19.18 69.2788 18.9788 68.5947 18.5763C67.9145 18.1698 67.3913 17.6064 67.0251 16.886C66.6628 16.1656 66.4817 15.3365 66.4817 14.3988C66.4817 13.449 66.6649 12.6159 67.0311 11.8995C67.4014 11.1791 67.9266 10.6176 68.6067 10.2152C69.2869 9.80868 70.0958 9.60544 71.0336 9.60544C71.8425 9.60544 72.5509 9.75234 73.1586 10.0461C73.7663 10.3399 74.2472 10.7525 74.6014 11.2837C74.9556 11.815 75.1508 12.4388 75.187 13.1552H72.7601C72.6917 12.6923 72.5106 12.32 72.2168 12.0383C71.927 11.7526 71.5467 11.6097 71.0758 11.6097C70.6774 11.6097 70.3293 11.7184 70.0314 11.9357C69.7376 12.149 69.5082 12.4609 69.3432 12.8714C69.1782 13.2819 69.0957 13.779 69.0957 14.3625C69.0957 14.9542 69.1762 15.4572 69.3372 15.8718C69.5022 16.2863 69.7336 16.6022 70.0314 16.8196C70.3293 17.0369 70.6774 17.1456 71.0758 17.1456C71.3696 17.1456 71.6332 17.0852 71.8667 16.9645C72.1041 16.8437 72.2993 16.6686 72.4523 16.4392C72.6092 16.2058 72.7118 15.9261 72.7601 15.6001H75.187C75.1467 16.3084 74.9536 16.9323 74.6074 17.4716C74.2653 18.0068 73.7925 18.4254 73.1888 18.7272C72.5851 19.0291 71.8707 19.18 71.0457 19.18Z" fill="white"/>
</svg>
