<svg width="148" height="24" viewBox="0 0 148 24" fill="none" xmlns="http://www.w3.org/2000/svg">
<g clip-path="url(#clip0_11_10)">
<path d="M15.5243 6.43845H20.2123L12.444 15.2253L20.2123 24H15.5243L10.1 17.8761L4.68798 24H0L7.75604 15.2253L0 6.43845H4.68798L10.1 12.5746L15.5243 6.43845Z" fill="#0084FF"/>
<path d="M22.679 16.9803V13.4704C22.679 11.5887 23.3663 9.93194 24.7408 8.50018C26.1725 7.12569 27.8252 6.43845 29.6988 6.43845H36.1417C38.0152 6.43845 39.672 7.12569 41.1119 8.50018C42.3882 9.80103 43.0714 11.3596 43.1614 13.1759H39.6392C39.5411 12.2514 39.1606 11.4823 38.4979 10.8687C37.8434 10.2551 37.058 9.9483 36.1417 9.9483H29.6988C28.7333 9.9483 27.907 10.2919 27.2198 10.9792C26.5325 11.6664 26.1889 12.4968 26.1889 13.4704V16.9803C26.1889 17.9457 26.5325 18.772 27.2198 19.4593C27.907 20.1465 28.7333 20.4901 29.6988 20.4901H36.1417C37.058 20.4901 37.8434 20.1833 38.4979 19.5697C39.1606 18.9561 39.5411 18.1911 39.6392 17.2748H43.1614C43.0714 19.0829 42.3882 20.6374 41.1119 21.9382C39.672 23.3127 38.0152 24 36.1417 24H29.6988C27.8252 24 26.1725 23.3127 24.7408 21.9382C23.3663 20.5065 22.679 18.8538 22.679 16.9803Z" fill="#0084FF"/>
<path d="M45.6281 16.9803V13.4704C45.6281 11.5887 46.3153 9.93194 47.6898 8.50018C49.1216 7.12569 50.7742 6.43845 52.6478 6.43845H59.0907C60.9643 6.43845 62.621 7.12569 64.0609 8.50018C65.4272 9.93194 66.1104 11.5887 66.1104 13.4704V16.9803C66.1104 18.8538 65.4272 20.5065 64.0609 21.9382C62.621 23.3127 60.9643 24 59.0907 24H52.6478C50.7742 24 49.1216 23.3127 47.6898 21.9382C46.3153 20.5065 45.6281 18.8538 45.6281 16.9803ZM49.1379 13.4704V16.9803C49.1379 17.9457 49.4816 18.772 50.1688 19.4593C50.856 20.1465 51.6824 20.4901 52.6478 20.4901H59.0907C60.0561 20.4901 60.8824 20.1465 61.5697 19.4593C62.2569 18.772 62.6006 17.9457 62.6006 16.9803V13.4704C62.6006 12.4968 62.2569 11.6664 61.5697 10.9792C60.8824 10.2919 60.0561 9.9483 59.0907 9.9483H52.6478C51.6824 9.9483 50.856 10.2919 50.1688 10.9792C49.4816 11.6664 49.1379 12.4968 49.1379 13.4704Z" fill="#0084FF"/>
<path d="M72.087 10.6355V24H68.5771V6.43845H72.8356L86.4332 19.8152V6.43845H89.943V24H85.6846L72.087 10.6355Z" fill="#0084FF"/>
<path d="M92.4098 6.43845H95.9196V24H92.4098V6.43845Z" fill="#0084FF"/>
<path d="M98.374 16.9803V13.4704C98.374 11.5887 99.0613 9.93194 100.436 8.50018C101.868 7.12569 103.52 6.43845 105.394 6.43845H111.837C113.71 6.43845 115.367 7.12569 116.807 8.50018C118.083 9.80103 118.766 11.3596 118.856 13.1759H115.334C115.236 12.2514 114.856 11.4823 114.193 10.8687C113.538 10.2551 112.753 9.9483 111.837 9.9483H105.394C104.428 9.9483 103.602 10.2919 102.915 10.9792C102.228 11.6664 101.884 12.4968 101.884 13.4704V16.9803C101.884 17.9457 102.228 18.772 102.915 19.4593C103.602 20.1465 104.428 20.4901 105.394 20.4901H111.837C112.753 20.4901 113.538 20.1833 114.193 19.5697C114.856 18.9561 115.236 18.1911 115.334 17.2748H118.856C118.766 19.0829 118.083 20.6374 116.807 21.9382C115.367 23.3127 113.71 24 111.837 24H105.394C103.52 24 101.868 23.3127 100.436 21.9382C99.0613 20.5065 98.374 18.8538 98.374 16.9803Z" fill="#0084FF"/>
<path d="M123.127 15.6426C122.563 15.1599 122.121 14.5749 121.802 13.8877C121.483 13.1923 121.323 12.4641 121.323 11.7032C121.323 10.7378 121.56 9.8583 122.035 9.0647C122.509 8.26291 123.143 7.62476 123.937 7.15023C124.739 6.67571 125.622 6.43845 126.588 6.43845H141.216V9.9483H126.588C126.105 9.9483 125.692 10.1201 125.348 10.4637C125.005 10.8074 124.833 11.2205 124.833 11.7032C124.833 12.1859 125.021 12.6073 125.397 12.9673C125.692 13.2045 126.068 13.3518 126.527 13.4091C126.985 13.4582 127.496 13.4827 128.061 13.4827C128.159 13.4827 128.257 13.4827 128.355 13.4827H128.367C129.742 13.5072 131.116 13.5113 132.491 13.495H132.896C133.567 13.4868 134.233 13.4745 134.896 13.4582C135.125 13.4582 135.358 13.4541 135.596 13.4459C136.144 13.4295 136.721 13.4541 137.326 13.5195C137.94 13.585 138.549 13.7609 139.155 14.0472C140.668 14.8245 141.601 16.0558 141.953 17.7412C142.1 18.5348 142.075 19.3161 141.879 20.0851C141.666 20.9033 141.278 21.6274 140.713 22.2573C140.206 22.8137 139.617 23.2432 138.946 23.5459C138.275 23.8486 137.571 24 136.835 24H121.912V20.4901H136.835C137.31 20.4901 137.731 20.2979 138.099 19.9133C138.476 19.4879 138.611 18.9847 138.504 18.4039C138.39 17.8475 138.091 17.4466 137.608 17.2012C137.085 16.9885 136.434 16.9066 135.657 16.9557C135.428 16.9639 135.199 16.968 134.97 16.968C134.299 16.9844 133.616 16.9966 132.92 17.0048H132.515C131.116 17.0294 129.709 17.0253 128.294 16.9925C128.204 16.9925 128.114 16.9925 128.024 16.9925C127.263 17.0089 126.453 16.9475 125.594 16.8085C124.743 16.6612 123.921 16.2726 123.127 15.6426Z" fill="#0084FF"/>
<path d="M56.0209 19.8114L60.8579 12.4808H51.184L56.0209 19.8114Z" fill="#D92727"/>
<path d="M147.645 2.53656C147.645 3.85186 146.578 4.91812 145.263 4.91812C143.948 4.91812 142.882 3.85186 142.882 2.53656C142.882 1.22126 143.948 0.154999 145.263 0.154999C146.578 0.154999 147.645 1.22126 147.645 2.53656Z" stroke="#0080FF" stroke-width="0.31"/>
<path d="M144.287 4.0584V1.14465H145.272C145.499 1.14465 145.686 1.18354 145.832 1.26132C145.978 1.33814 146.086 1.4439 146.157 1.57859C146.227 1.71327 146.262 1.86645 146.262 2.03813C146.262 2.2098 146.227 2.36204 146.157 2.49482C146.086 2.62761 145.979 2.73195 145.834 2.80782C145.689 2.88276 145.503 2.92022 145.277 2.92022H144.481V2.60153H145.266C145.422 2.60153 145.547 2.57877 145.642 2.53324C145.737 2.48771 145.807 2.42321 145.849 2.33975C145.893 2.25533 145.915 2.15479 145.915 2.03813C145.915 1.92146 145.893 1.8195 145.849 1.73224C145.806 1.64498 145.736 1.57764 145.64 1.53021C145.544 1.48184 145.418 1.45765 145.26 1.45765H144.64V4.0584H144.287ZM145.659 2.74949L146.376 4.0584H145.966L145.26 2.74949H145.659Z" fill="#0080FF"/>
</g>
<defs>
<clipPath id="clip0_11_10">
<rect width="148" height="24" fill="white"/>
</clipPath>
</defs>
</svg>
